<?xml version="1.0" encoding="UTF-8" standalone="no"?>
<svg
   xmlns:dc="http://purl.org/dc/elements/1.1/"
   xmlns:cc="http://creativecommons.org/ns#"
   xmlns:rdf="http://www.w3.org/1999/02/22-rdf-syntax-ns#"
   xmlns:svg="http://www.w3.org/2000/svg"
   xmlns="http://www.w3.org/2000/svg"
   xmlns:xlink="http://www.w3.org/1999/xlink"
   xmlns:sodipodi="http://sodipodi.sourceforge.net/DTD/sodipodi-0.dtd"
   xmlns:inkscape="http://www.inkscape.org/namespaces/inkscape"
   width="24"
   height="24"
   id="svg3495"
   version="1.1"
   sodipodi:docname="check-spelling.svg"
   inkscape:version="0.92.2 (5c3e80d, 2017-08-06)">
  <sodipodi:namedview
     pagecolor="#ffffff"
     bordercolor="#666666"
     borderopacity="1"
     objecttolerance="10"
     gridtolerance="10"
     guidetolerance="10"
     inkscape:pageopacity="0"
     inkscape:pageshadow="2"
     inkscape:window-width="1366"
     inkscape:window-height="701"
     id="namedview4402"
     showgrid="true"
     inkscape:zoom="21.541667"
     inkscape:cx="12"
     inkscape:cy="12"
     inkscape:window-x="0"
     inkscape:window-y="0"
     inkscape:window-maximized="1"
     inkscape:current-layer="g4195">
    <inkscape:grid
       type="xygrid"
       id="grid4427" />
  </sodipodi:namedview>
  <defs
     id="defs3497">
    <linearGradient
       inkscape:collect="always"
       id="linearGradient882">
      <stop
         style="stop-color:#ff0000;stop-opacity:1;"
         offset="0"
         id="stop878" />
      <stop
         style="stop-color:#ff0000;stop-opacity:0;"
         offset="1"
         id="stop880" />
    </linearGradient>
    <clipPath
       clipPathUnits="userSpaceOnUse"
       id="clipPath3669">
      <path
         d="M 0,96 96,96 96,0 0,0 0,96 z"
         id="path3671" />
    </clipPath>
    <linearGradient
       xlink:href="#linearGradient3821"
       id="linearGradient3793"
       x1="12"
       y1="22"
       x2="12"
       y2="-2"
       gradientUnits="userSpaceOnUse"
       gradientTransform="translate(0,26)" />
    <linearGradient
       id="linearGradient3821">
      <stop
         style="stop-color:#555555;stop-opacity:1;"
         offset="0"
         id="stop3823" />
      <stop
         style="stop-color:#666666;stop-opacity:1;"
         offset="1"
         id="stop3825" />
    </linearGradient>
    <linearGradient
       y2="-2"
       x2="12"
       y1="22"
       x1="12"
       gradientTransform="translate(31.883514,24.756453)"
       gradientUnits="userSpaceOnUse"
       id="linearGradient3011"
       xlink:href="#linearGradient3821" />
    <linearGradient
       xlink:href="#linearGradient3821"
       id="linearGradient3800"
       x1="12"
       y1="22"
       x2="12"
       y2="0"
       gradientUnits="userSpaceOnUse"
       gradientTransform="translate(1,26)" />
    <linearGradient
       xlink:href="#linearGradient3821"
       id="linearGradient3810"
       gradientUnits="userSpaceOnUse"
       x1="12"
       y1="22"
       x2="12"
       y2="0" />
    <linearGradient
       xlink:href="#linearGradient3821"
       id="linearGradient3824"
       x1="12"
       y1="22"
       x2="12"
       y2="0"
       gradientUnits="userSpaceOnUse" />
    <linearGradient
       xlink:href="#linearGradient3821"
       id="linearGradient3843"
       gradientUnits="userSpaceOnUse"
       x1="12"
       y1="22"
       x2="12"
       y2="0" />
    <linearGradient
       xlink:href="#linearGradient3821"
       id="linearGradient3854"
       gradientUnits="userSpaceOnUse"
       x1="12"
       y1="22"
       x2="12"
       y2="0"
       gradientTransform="translate(1,27)" />
    <radialGradient
       xlink:href="#linearGradient3952"
       id="radialGradient3960"
       gradientUnits="userSpaceOnUse"
       gradientTransform="matrix(1,0,0,0.75,-21,12.375)"
       cx="40"
       cy="43.5"
       fx="40"
       fy="43.5"
       r="2" />
    <linearGradient
       id="linearGradient3952">
      <stop
         style="stop-color:#000000;stop-opacity:1;"
         offset="0"
         id="stop3954" />
      <stop
         style="stop-color:#000000;stop-opacity:0;"
         offset="1"
         id="stop3956" />
    </linearGradient>
    <radialGradient
       xlink:href="#linearGradient3944"
       id="radialGradient3957"
       gradientUnits="userSpaceOnUse"
       gradientTransform="matrix(1,0,0,0.75,-4,12.375)"
       cx="9"
       cy="43.5"
       fx="9"
       fy="43.5"
       r="2" />
    <linearGradient
       id="linearGradient3944">
      <stop
         style="stop-color:#000000;stop-opacity:1;"
         offset="0"
         id="stop3946" />
      <stop
         style="stop-color:#000000;stop-opacity:0;"
         offset="1"
         id="stop3948" />
    </linearGradient>
    <linearGradient
       xlink:href="#linearGradient3960"
       id="linearGradient3954"
       gradientUnits="userSpaceOnUse"
       gradientTransform="translate(-8,1.5)"
       x1="25"
       y1="45"
       x2="25"
       y2="42" />
    <linearGradient
       id="linearGradient3960">
      <stop
         style="stop-color:#000000;stop-opacity:0;"
         offset="0"
         id="stop3962" />
      <stop
         id="stop3970"
         offset="0.5"
         style="stop-color:#000000;stop-opacity:1;" />
      <stop
         style="stop-color:#000000;stop-opacity:0;"
         offset="1"
         id="stop3964" />
    </linearGradient>
    <linearGradient
       y2="42"
       x2="25"
       y1="45"
       x1="25"
       gradientTransform="translate(-8,1.5)"
       gradientUnits="userSpaceOnUse"
       id="linearGradient3994"
       xlink:href="#linearGradient3960" />
    <linearGradient
       xlink:href="#linearGradient3960"
       id="linearGradient4038"
       gradientUnits="userSpaceOnUse"
       gradientTransform="translate(-9,-1)"
       x1="25"
       y1="45"
       x2="25"
       y2="42" />
    <radialGradient
       xlink:href="#linearGradient3944"
       id="radialGradient4041"
       gradientUnits="userSpaceOnUse"
       gradientTransform="matrix(1,0,0,0.75,-4,9.875)"
       cx="9"
       cy="43.5"
       fx="9"
       fy="43.5"
       r="2" />
    <radialGradient
       xlink:href="#linearGradient3952"
       id="radialGradient4044"
       gradientUnits="userSpaceOnUse"
       gradientTransform="matrix(1,0,0,0.75,-22,9.875)"
       cx="40"
       cy="43.5"
       fx="40"
       fy="43.5"
       r="2" />
    <radialGradient
       xlink:href="#linearGradient3952"
       id="radialGradient4051"
       gradientUnits="userSpaceOnUse"
       gradientTransform="matrix(1,0,0,0.75,-21,10.282156)"
       cx="40"
       cy="43.5"
       fx="40"
       fy="43.5"
       r="2" />
    <radialGradient
       xlink:href="#linearGradient3944"
       id="radialGradient4053"
       gradientUnits="userSpaceOnUse"
       gradientTransform="matrix(1,0,0,0.75,-3,10.282156)"
       cx="9"
       cy="43.5"
       fx="9"
       fy="43.5"
       r="2" />
    <linearGradient
       xlink:href="#linearGradient3960"
       id="linearGradient4055"
       gradientUnits="userSpaceOnUse"
       gradientTransform="translate(-8,-0.59284336)"
       x1="25"
       y1="45"
       x2="25"
       y2="42" />
    <radialGradient
       xlink:href="#linearGradient3952"
       id="radialGradient4970"
       gradientUnits="userSpaceOnUse"
       gradientTransform="matrix(1,0,0,0.75,-20,14.875)"
       cx="40"
       cy="43.5"
       fx="40"
       fy="43.5"
       r="2" />
    <radialGradient
       xlink:href="#linearGradient3944"
       id="radialGradient4972"
       gradientUnits="userSpaceOnUse"
       gradientTransform="matrix(1,0,0,0.75,-6,14.875)"
       cx="9"
       cy="43.5"
       fx="9"
       fy="43.5"
       r="2" />
    <linearGradient
       xlink:href="#linearGradient3960"
       id="linearGradient4974"
       gradientUnits="userSpaceOnUse"
       gradientTransform="translate(-11,4)"
       x1="25"
       y1="45"
       x2="25"
       y2="42" />
    <linearGradient
       inkscape:collect="always"
       xlink:href="#linearGradient882"
       id="linearGradient886"
       x1="2.7906344"
       y1="45.510639"
       x2="20.216166"
       y2="45.510639"
       gradientUnits="userSpaceOnUse" />
  </defs>
  <metadata
     id="metadata3500">
    <rdf:RDF>
      <cc:Work
         rdf:about="">
        <dc:format>image/svg+xml</dc:format>
        <dc:type
           rdf:resource="http://purl.org/dc/dcmitype/StillImage" />
        <dc:title />
      </cc:Work>
    </rdf:RDF>
  </metadata>
  <g
     id="layer1"
     transform="translate(0,-24)">
    <g
       id="g4195">
      <path
         id="path11643-3-2"
         d="m 5.5,26.5 v 0.5 3 0.5 H 6 14.5 c 0.08206,0 0.389728,0.133396 0.625,0.375 0.235272,0.241604 0.375,0.582603 0.375,0.625 v 1 h -7 c -1.5181314,0 -2.8768217,0.632337 -3.75,1.625 L 4.71875,34.15625 C 3.8831141,35.123332 3.4895182,36.317935 3.5,37.5 3.50999,38.69972 3.9302675,39.914024 4.78125,40.875 5.6466277,41.852232 6.9943753,42.5 8.5,42.5 H 16 17.5 19 19.5 V 42 c -0.03639,-1.081809 0,-1.899832 0,-3 v -7.5 c 0,-2.720691 -2.208767,-5 -5,-5 H 6 Z m 3,10 h 7 v 2 h -7 C 7.9951765,38.5 7.9571342,38.44861 7.78125,38.25 7.6331845,38.082802 7.502401,37.770483 7.5,37.5 7.49793,37.210532 7.6330513,36.882946 7.75,36.75 7.9077178,36.570708 7.9580406,36.5 8.5,36.5 Z"
         style="color:#000000;font-style:normal;font-variant:normal;font-weight:normal;font-stretch:normal;line-height:normal;font-family:Sans;-inkscape-font-specification:Sans;text-indent:0;text-align:start;text-decoration:none;text-decoration-line:none;letter-spacing:normal;word-spacing:normal;text-transform:none;writing-mode:lr-tb;direction:ltr;baseline-shift:baseline;text-anchor:start;display:inline;overflow:visible;visibility:visible;fill:url(#linearGradient3800);fill-opacity:1;stroke:none;stroke-width:2;marker:none;enable-background:accumulate"
         inkscape:connector-curvature="0" />
      <path
         style="color:#000000;font-style:normal;font-variant:normal;font-weight:normal;font-stretch:normal;line-height:normal;font-family:Sans;-inkscape-font-specification:Sans;text-indent:0;text-align:start;text-decoration:none;text-decoration-line:none;letter-spacing:normal;word-spacing:normal;text-transform:none;writing-mode:lr-tb;direction:ltr;baseline-shift:baseline;text-anchor:start;display:inline;overflow:visible;visibility:visible;opacity:0.61000001;fill:none;stroke:#000000;stroke-width:1;stroke-miterlimit:4;stroke-dasharray:none;stroke-opacity:1;marker:none;enable-background:accumulate"
         d="m 5.5,26.5 v 0.5 3 0.5 H 6 14.5 c 0.08206,0 0.389728,0.133396 0.625,0.375 0.235272,0.241604 0.375,0.582603 0.375,0.625 v 1 h -7 c -1.5181314,0 -2.8768217,0.632337 -3.75,1.625 L 4.71875,34.15625 C 3.8831141,35.123332 3.4895182,36.317935 3.5,37.5 3.50999,38.69972 3.9302675,39.914024 4.78125,40.875 5.6466277,41.852232 6.9943753,42.5 8.5,42.5 H 16 17.5 19 19.5 V 42 c -0.03639,-1.081809 0,-1.899832 0,-3 v -7.5 c 0,-2.720691 -2.208767,-5 -5,-5 H 6 Z m 3,10 h 7 v 2 h -7 C 7.9951765,38.5 7.9571342,38.44861 7.78125,38.25 7.6331845,38.082802 7.502401,37.770483 7.5,37.5 7.49793,37.210532 7.6330513,36.882946 7.75,36.75 7.9077178,36.570708 7.9580406,36.5 8.5,36.5 Z"
         id="path3791"
         inkscape:connector-curvature="0" />
      <path
         id="path3802"
         d="m 6,27 v 1 h 8.5 c 2.519034,0 4.5,2.049922 4.5,4.5 v -1 C 19,29.049922 17.019034,27 14.5,27 Z m 2.5,6 C 7.1207097,33 5.8978404,33.590155 5.125,34.46875 H 5.09375 L 5.0625,34.5 C 4.3290499,35.365593 3.99065,36.445603 4,37.5 4.00139,37.666857 4.012256,37.834179 4.03125,38 4.117778,37.112343 4.4462387,36.227291 5.0625,35.5 L 5.09375,35.46875 H 5.125 C 5.8978404,34.590155 7.1207097,34 8.5,34 h 7 0.5 V 33.5 33 H 15.5 Z M 7.0625,38 C 7.020593,38.155264 6.998671,38.314313 7,38.5 c 0.0038,0.428221 0.1501803,0.804592 0.40625,1.09375 0.085614,0.09668 0.2264879,0.228465 0.4375,0.3125 C 8.0547621,39.99029 8.2306223,40 8.5,40 h 7 0.5 V 39.5 39 h -0.5 -7 C 8.2306223,39 8.0547621,38.9903 7.84375,38.90625 7.6327379,38.82221 7.491864,38.69043 7.40625,38.59375 7.2563739,38.424508 7.1306289,38.221905 7.0625,38 Z"
         style="color:#000000;font-style:normal;font-variant:normal;font-weight:normal;font-stretch:normal;line-height:normal;font-family:Sans;-inkscape-font-specification:Sans;text-indent:0;text-align:start;text-decoration:none;text-decoration-line:none;letter-spacing:normal;word-spacing:normal;text-transform:none;writing-mode:lr-tb;direction:ltr;baseline-shift:baseline;text-anchor:start;display:inline;overflow:visible;visibility:visible;opacity:0.2;fill:#ffffff;fill-opacity:1;stroke:none;stroke-width:2;marker:none;enable-background:accumulate"
         inkscape:connector-curvature="0" />
      <path
         style="fill:none;stroke:#aa0000;stroke-width:2;stroke-linecap:butt;stroke-linejoin:round;stroke-miterlimit:4;stroke-dasharray:none;stroke-opacity:1"
         d="m 2.8143133,46.510639 2,-2 2,2 2,-2 1.9999997,2 2,-2 2,2 2,-2 2,2 2,-2 v 0"
         id="path6700"
         inkscape:connector-curvature="0" />
      <path
         style="fill:none;stroke:url(#linearGradient886);stroke-width:0.6;stroke-linecap:butt;stroke-linejoin:round;stroke-miterlimit:4;stroke-dasharray:none;stroke-opacity:1"
         d="m 3,46.278532 1.8143133,-1.767893 2,2 2,-2 1.9999997,2 2,-2 2,2 2,-2 2,2 L 20,45.278532 v 0"
         id="path856"
         inkscape:connector-curvature="0" />
    </g>
  </g>
</svg>
