<?xml version="1.0" encoding="UTF-8" standalone="no"?>
<svg
   xmlns:osb="http://www.openswatchbook.org/uri/2009/osb"
   xmlns:dc="http://purl.org/dc/elements/1.1/"
   xmlns:cc="http://creativecommons.org/ns#"
   xmlns:rdf="http://www.w3.org/1999/02/22-rdf-syntax-ns#"
   xmlns:svg="http://www.w3.org/2000/svg"
   xmlns="http://www.w3.org/2000/svg"
   xmlns:xlink="http://www.w3.org/1999/xlink"
   xmlns:sodipodi="http://sodipodi.sourceforge.net/DTD/sodipodi-0.dtd"
   xmlns:inkscape="http://www.inkscape.org/namespaces/inkscape"
   id="svg3277"
   height="24"
   width="24"
   version="1.1"
   sodipodi:docname="insert-list.svg"
   inkscape:version="0.92.2 (5c3e80d, 2017-08-06)">
  <sodipodi:namedview
     pagecolor="#ffffff"
     bordercolor="#666666"
     borderopacity="1"
     objecttolerance="10"
     gridtolerance="10"
     guidetolerance="10"
     inkscape:pageopacity="0"
     inkscape:pageshadow="2"
     inkscape:window-width="1366"
     inkscape:window-height="701"
     id="namedview51"
     showgrid="true"
     inkscape:zoom="25.467355"
     inkscape:cx="14.99109"
     inkscape:cy="11.224957"
     inkscape:window-x="0"
     inkscape:window-y="0"
     inkscape:window-maximized="1"
     inkscape:current-layer="svg3277"
     showguides="false">
    <inkscape:grid
       type="xygrid"
       id="grid65" />
  </sodipodi:namedview>
  <metadata
     id="metadata46">
    <rdf:RDF>
      <cc:Work
         rdf:about="">
        <dc:format>image/svg+xml</dc:format>
        <dc:type
           rdf:resource="http://purl.org/dc/dcmitype/StillImage" />
        <dc:title></dc:title>
      </cc:Work>
    </rdf:RDF>
  </metadata>
  <defs
     id="defs3279">
    <linearGradient
       id="linearGradient2348"
       osb:paint="solid">
      <stop
         style="stop-color:#6c5353;stop-opacity:1;"
         offset="0"
         id="stop2346" />
    </linearGradient>
    <linearGradient
       gradientTransform="translate(-0.99999992,0.9994521)"
       gradientUnits="userSpaceOnUse"
       xlink:href="#linearGradient3251"
       id="linearGradient3153"
       y2="-0.02451775"
       x2="17.591623"
       y1="7"
       x1="17.591623" />
    <linearGradient
       id="linearGradient3251">
      <stop
         offset="0"
         style="stop-color:#917f6e;stop-opacity:1"
         id="stop3253" />
      <stop
         offset="1"
         style="stop-color:#cbbaa9;stop-opacity:1"
         id="stop3255" />
    </linearGradient>
    <linearGradient
       gradientTransform="translate(-25,-2.0005479)"
       gradientUnits="userSpaceOnUse"
       xlink:href="#linearGradient4222"
       id="linearGradient3156"
       y2="7.0924568"
       x2="40.006763"
       y1="12.910877"
       x1="40.006763" />
    <linearGradient
       id="linearGradient4222">
      <stop
         offset="0"
         style="stop-color:#ffffff;stop-opacity:1"
         id="stop4224" />
      <stop
         offset="1"
         style="stop-color:#ffffff;stop-opacity:0"
         id="stop4226" />
    </linearGradient>
    <linearGradient
       gradientTransform="translate(-25,-2.0005479)"
       gradientUnits="userSpaceOnUse"
       xlink:href="#linearGradient4222"
       id="linearGradient3159"
       y2="22.697742"
       x2="38.382198"
       y1="5.90625"
       x1="38.382198" />
    <linearGradient
       gradientTransform="translate(-25,-2.0005479)"
       gradientUnits="userSpaceOnUse"
       xlink:href="#linearGradient3243"
       id="linearGradient3162"
       y2="24.0341"
       x2="39.905758"
       y1="6.1230369"
       x1="39.905758" />
    <linearGradient
       id="linearGradient3243">
      <stop
         offset="0"
         style="stop-color:#fff4e9;stop-opacity:1"
         id="stop3245" />
      <stop
         offset="1"
         style="stop-color:#e7d6c5;stop-opacity:1"
         id="stop3247" />
    </linearGradient>
    <linearGradient
       gradientTransform="translate(-25,-2.0005479)"
       gradientUnits="userSpaceOnUse"
       xlink:href="#linearGradient3251"
       id="linearGradient3164"
       y2="5"
       x2="32.015705"
       y1="24.011269"
       x1="32.015705" />
    <linearGradient
       id="linearGradient3283">
      <stop
         offset="0"
         style="stop-color:#000000;stop-opacity:1"
         id="stop3285" />
      <stop
         offset="1"
         style="stop-color:#000000;stop-opacity:0"
         id="stop3287" />
    </linearGradient>
    <radialGradient
       gradientTransform="matrix(0.9767045,0,0,0.21706685,-1.2272711,17.626841)"
       gradientUnits="userSpaceOnUse"
       xlink:href="#linearGradient3283"
       id="radialGradient3275"
       fy="20.146597"
       fx="10.471204"
       r="9.2146597"
       cy="20.146597"
       cx="10.471204" />
    <radialGradient
       gradientTransform="matrix(0,0.52544994,-0.5716256,0,46.193389,-21.123812)"
       gradientUnits="userSpaceOnUse"
       xlink:href="#linearGradient3242-7-3-8-0-4-58-06"
       id="radialGradient3900-3"
       fy="48.216358"
       fx="65.297462"
       r="31.000002"
       cy="48.216358"
       cx="65.297462" />
    <linearGradient
       id="linearGradient3242-7-3-8-0-4-58-06">
      <stop
         id="stop3244-5-8-5-6-4-3-8"
         style="stop-color:#cdf87e;stop-opacity:1"
         offset="0" />
      <stop
         id="stop3246-9-5-1-5-3-0-7"
         style="stop-color:#a2e34f;stop-opacity:1"
         offset="0.26238" />
      <stop
         id="stop3248-7-2-0-7-5-35-9"
         style="stop-color:#68b723;stop-opacity:1"
         offset="0.66093999" />
      <stop
         id="stop3250-8-2-8-5-6-40-4"
         style="stop-color:#1d7e0d;stop-opacity:1"
         offset="1" />
    </linearGradient>
    <linearGradient
       gradientTransform="matrix(0.2817955,0,0,0.2800956,12.196562,12.014885)"
       gradientUnits="userSpaceOnUse"
       xlink:href="#linearGradient4154-0"
       id="linearGradient3030-13"
       y2="35.62291"
       x2="24.138529"
       y1="10.631441"
       x1="24.138529" />
    <linearGradient
       id="linearGradient4154-0">
      <stop
         offset="0"
         style="stop-color:#ffffff;stop-opacity:1"
         id="stop4156-1" />
      <stop
         offset="0.00000002"
         style="stop-color:#ffffff;stop-opacity:0.23529412"
         id="stop4158-6" />
      <stop
         offset="1"
         style="stop-color:#ffffff;stop-opacity:0.15686275"
         id="stop4160-3" />
      <stop
         offset="1"
         style="stop-color:#ffffff;stop-opacity:0.39215687"
         id="stop4162-9" />
    </linearGradient>
    <linearGradient
       gradientTransform="matrix(0.2817955,0,0,0.2800956,12.178741,12.02218)"
       gradientUnits="userSpaceOnUse"
       xlink:href="#linearGradient4333"
       id="linearGradient3030-1"
       y2="24.912279"
       x2="24.138529"
       y1="21.34207"
       x1="24.138529" />
    <linearGradient
       id="linearGradient4333">
      <stop
         id="stop4335"
         style="stop-color:#ffffff;stop-opacity:1"
         offset="0" />
      <stop
         id="stop4337"
         style="stop-color:#ffffff;stop-opacity:0.23529412"
         offset="0.00000019" />
      <stop
         id="stop4339"
         style="stop-color:#ffffff;stop-opacity:0.15686275"
         offset="1" />
      <stop
         id="stop4341"
         style="stop-color:#ffffff;stop-opacity:0.39215687"
         offset="1" />
    </linearGradient>
    <linearGradient
       xlink:href="#linearGradient3821"
       id="linearGradient3275"
       gradientUnits="userSpaceOnUse"
       x1="12"
       y1="22"
       x2="12"
       y2="0"
       gradientTransform="matrix(-1,0,0,1,21,-5)" />
    <linearGradient
       id="linearGradient3821">
      <stop
         style="stop-color:#555555;stop-opacity:1;"
         offset="0"
         id="stop3823" />
      <stop
         style="stop-color:#666666;stop-opacity:1;"
         offset="1"
         id="stop3825" />
    </linearGradient>
    <linearGradient
       xlink:href="#linearGradient3821"
       id="linearGradient3275-9"
       gradientUnits="userSpaceOnUse"
       x1="12"
       y1="22"
       x2="12"
       y2="0"
       gradientTransform="matrix(-1,0,0,1,21,1)" />
    <linearGradient
       xlink:href="#linearGradient3821"
       id="linearGradient3275-5"
       gradientUnits="userSpaceOnUse"
       x1="12"
       y1="22"
       x2="12"
       y2="0"
       gradientTransform="matrix(-1,0,0,1,21,7)" />
  </defs>
  <text
     xml:space="preserve"
     style="font-style:normal;font-weight:normal;font-size:26.66666667px;line-height:1.25;font-family:sans-serif;letter-spacing:0px;word-spacing:0px;fill:#000000;fill-opacity:1;stroke:none;"
     x="2.237288"
     y="18.508474"
     id="text55"><tspan
       sodipodi:role="line"
       id="tspan53"
       x="2.237288"
       y="53.899101" /></text>
  <text
     xml:space="preserve"
     style="font-style:normal;font-weight:normal;font-size:40px;line-height:1.25;font-family:sans-serif;letter-spacing:0px;word-spacing:0px;fill:#000000;fill-opacity:1;stroke:none"
     x="1.1186441"
     y="12.762712"
     id="text59"><tspan
       sodipodi:role="line"
       id="tspan57"
       x="1.1186441"
       y="48.153336" /></text>
  <path
     inkscape:connector-curvature="0"
     style="fill:url(#linearGradient3275);fill-opacity:1;stroke:none;stroke-linejoin:round"
     d="m 19.5,3.5 c 0,1 0,2 0,3 -4.333333,0 -8.666667,0 -13,0 0,-1 0,-2 0,-3 4.333333,0 8.666667,0 13,0 z"
     id="path3115" />
  <path
     inkscape:connector-curvature="0"
     style="opacity:0.61000001;fill:none;stroke:#000000;stroke-width:1;stroke-linejoin:round;stroke-miterlimit:4;stroke-dasharray:none;stroke-opacity:1"
     d="m 19.5,3.5 c 0,1 0,2 0,3 -4.333333,0 -8.666667,0 -13,0 0,-1 0,-2 0,-3 4.333333,0 8.666667,0 13,0 z"
     id="path3117" />
  <path
     inkscape:connector-curvature="0"
     style="opacity:0.2;fill:#ffffff;fill-opacity:1;stroke:none;stroke-linejoin:round"
     d="M 7,4 C 7,4.666667 7,5.333333 7,6 7.333333,6 7.666667,6 8,6 8,5.666667 8,5.333333 8,5 11.666667,5 15.333333,5 19,5 19,4.666667 19,4.333333 19,4 15,4 11,4 7,4 Z"
     id="path3119" />
  <path
     inkscape:connector-curvature="0"
     style="fill:url(#linearGradient3275-9);fill-opacity:1;stroke:none;stroke-linejoin:round"
     d="m 19.5,9.5 c 0,1 0,2 0,3 -4.333333,0 -8.666667,0 -13,0 0,-1 0,-2 0,-3 4.333333,0 8.666667,0 13,0 z"
     id="path3115-8" />
  <path
     inkscape:connector-curvature="0"
     style="opacity:0.61000001;fill:none;stroke:#000000;stroke-width:1;stroke-linejoin:round;stroke-miterlimit:4;stroke-dasharray:none;stroke-opacity:1"
     d="m 19.5,9.5 c 0,1 0,2 0,3 -4.333333,0 -8.666667,0 -13,0 0,-1 0,-2 0,-3 4.333333,0 8.666667,0 13,0 z"
     id="path3117-9" />
  <path
     inkscape:connector-curvature="0"
     style="opacity:0.2;fill:#ffffff;fill-opacity:1;stroke:none;stroke-linejoin:round"
     d="m 7,10 c 0,0.666667 0,1.333333 0,2 0.333333,0 0.666667,0 1,0 0,-0.333333 0,-0.666667 0,-1 3.666667,0 7.333333,0 11,0 0,-0.333333 0,-0.666667 0,-1 -4,0 -8,0 -12,0 z"
     id="path3119-5" />
  <path
     inkscape:connector-curvature="0"
     style="fill:url(#linearGradient3275-5);fill-opacity:1;stroke:none;stroke-linejoin:round"
     d="m 19.5,15.5 c 0,1 0,2 0,3 -4.333333,0 -8.666667,0 -13,0 0,-1 0,-2 0,-3 4.333333,0 8.666667,0 13,0 z"
     id="path3115-5" />
  <path
     inkscape:connector-curvature="0"
     style="opacity:0.61000001;fill:none;stroke:#000000;stroke-width:1;stroke-linejoin:round;stroke-miterlimit:4;stroke-dasharray:none;stroke-opacity:1"
     d="m 19.5,15.5 c 0,1 0,2 0,3 -4.333333,0 -8.666667,0 -13,0 0,-1 0,-2 0,-3 4.333333,0 8.666667,0 13,0 z"
     id="path3117-99" />
  <g
     id="g4474">
    <path
       d="m 16.482179,16.507295 0,-3 4,0 0,3 3,0 0,4 -3,0 0,2.999991 -4,0 0,-2.999991 -2.989465,0 0,-4 2.989465,0 z"
       id="path2262"
       style="color:#000000;display:inline;overflow:visible;visibility:visible;fill:url(#radialGradient3900-3);fill-opacity:1;fill-rule:nonzero;stroke:none;stroke-width:0.98542744;marker:none;enable-background:accumulate" />
    <path
       d="m 17.5,18.004404 0,-3.504404 2,0 0,3.5 m 0,1 0,3.5 -2,0 0,-3.5"
       id="path2272"
       style="display:inline;opacity:0.5;fill:none;stroke:url(#linearGradient3030-13);stroke-width:1;stroke-linecap:butt;stroke-linejoin:miter;stroke-miterlimit:4;stroke-dasharray:none;stroke-opacity:1" />
    <path
       d="m 16.482179,16.507295 0,-3 4,0 0,3 3,0 0,4 -3,0 0,2.999991 -4,0 0,-2.999991 -2.989465,0 0,-4 2.989465,0 z"
       id="path2262-2"
       style="color:#000000;clip-rule:nonzero;display:inline;overflow:visible;visibility:visible;opacity:0.5;isolation:auto;mix-blend-mode:normal;color-interpolation:sRGB;color-interpolation-filters:linearRGB;solid-color:#000000;solid-opacity:1;fill:none;fill-opacity:1;fill-rule:nonzero;stroke:#0f5a00;stroke-width:1;stroke-linecap:round;stroke-linejoin:round;stroke-miterlimit:4;stroke-dasharray:none;stroke-dashoffset:0;stroke-opacity:1;marker:none;color-rendering:auto;image-rendering:auto;shape-rendering:auto;text-rendering:auto;enable-background:accumulate" />
    <path
       d="m 20,17.507295 2.482179,-0.0073 0,2 L 20,19.507295 m -3,0 -2.5,-0.0073 0,-2 2.5,0.0073"
       id="path2272-2"
       style="display:inline;opacity:0.5;fill:none;stroke:url(#linearGradient3030-1);stroke-width:1;stroke-linecap:butt;stroke-linejoin:miter;stroke-miterlimit:4;stroke-dasharray:none;stroke-opacity:1" />
  </g>
  <path
     inkscape:connector-curvature="0"
     style="opacity:0.2;fill:#ffffff;fill-opacity:1;stroke:none;stroke-linejoin:round"
     d="m 7,16 c 0,0.666667 0,1.333333 0,2 0.333333,0 0.666667,0 1,0 0,-0.333333 0,-0.666667 0,-1 3.666667,0 7.333333,0 11,0 0,-0.333333 0,-0.666667 0,-1 -4,0 -8,0 -12,0 z"
     id="path3119-1" />
  <text
     xml:space="preserve"
     style="font-style:normal;font-weight:normal;font-size:16px;line-height:1.25;font-family:sans-serif;letter-spacing:0px;word-spacing:0px;fill:#000000;fill-opacity:1;stroke:none;"
     x="1"
     y="4"
     id="text2459"><tspan
       sodipodi:role="line"
       id="tspan2457"
       x="1"
       y="39.390625" /></text>
  <text
     xml:space="preserve"
     style="font-style:normal;font-weight:normal;font-size:40px;line-height:1.25;font-family:sans-serif;letter-spacing:0px;word-spacing:0px;fill:#000000;fill-opacity:1;stroke:none"
     x="3"
     y="5"
     id="text2463"><tspan
       sodipodi:role="line"
       id="tspan2461"
       x="3"
       y="40.390625" /></text>
  <text
     xml:space="preserve"
     style="font-style:normal;font-weight:normal;font-size:40px;line-height:1.25;font-family:sans-serif;letter-spacing:0px;word-spacing:0px;fill:#4d4d4d;fill-opacity:1;stroke:none"
     x="0.66752124"
     y="6.9423828"
     id="text2467"><tspan
       sodipodi:role="line"
       id="tspan2465"
       x="0.66752124"
       y="6.9423828"
       style="font-style:normal;font-variant:normal;font-weight:bold;font-stretch:normal;font-size:5.33333349px;font-family:sans-serif;-inkscape-font-specification:'sans-serif Bold';fill:#4d4d4d">1</tspan></text>
  <text
     xml:space="preserve"
     style="font-style:normal;font-weight:normal;font-size:40px;line-height:1.25;font-family:sans-serif;letter-spacing:0px;word-spacing:0px;fill:#4d4d4d;fill-opacity:1;stroke:none"
     x="0.74348944"
     y="12.963298"
     id="text2471"><tspan
       sodipodi:role="line"
       id="tspan2469"
       x="0.74348944"
       y="12.963298"
       style="font-style:normal;font-variant:normal;font-weight:bold;font-stretch:normal;font-size:5.33333349px;font-family:sans-serif;-inkscape-font-specification:'sans-serif Bold';fill:#4d4d4d">2</tspan></text>
  <text
     xml:space="preserve"
     style="font-style:normal;font-weight:normal;font-size:40px;line-height:1.25;font-family:sans-serif;letter-spacing:0px;word-spacing:0px;fill:#4d4d4d;fill-opacity:1;stroke:none"
     x="0.70678729"
     y="18.932127"
     id="text2475"><tspan
       sodipodi:role="line"
       id="tspan2473"
       x="0.70678729"
       y="18.932127"
       style="font-style:normal;font-variant:normal;font-weight:bold;font-stretch:normal;font-size:5.33333349px;font-family:sans-serif;-inkscape-font-specification:'sans-serif Bold';fill:#4d4d4d">3</tspan></text>
</svg>
